<?xml version="1.0" encoding="UTF-8"?>
<svg width="23px" height="19px" viewBox="0 0 23 19" version="1.1" xmlns="http://www.w3.org/2000/svg" xmlns:xlink="http://www.w3.org/1999/xlink">
    <!-- Generator: Sketch 48.2 (47327) - http://www.bohemiancoding.com/sketch -->
    <title>Page 1 Copy 2</title>
    <desc>Created with Sketch.</desc>
    <defs></defs>
    <g id="002-options-e" stroke="none" stroke-width="1" fill="none" fill-rule="evenodd" transform="translate(-699.000000, -401.000000)">
        <g id="Group-2" transform="translate(268.000000, 394.000000)" fill="#D7640A">
            <path d="M443.474521,23.5612855 C443.501612,23.4781805 443.501612,23.3698145 443.501612,23.2867095 L444.435536,15.5985832 L444.545733,15.5985832 L453.194875,18.4274476 L453.003404,16.2033824 L450.449116,14.4731879 L447.894827,12.7711832 L444.545733,10.5203927 L444.052228,5.22034478 C444.052228,5.22034478 443.694913,3.62743822 443.008474,3.62743822 C442.294942,3.62743822 442.020366,5.02740942 442.020366,5.02740942 L441.471214,10.7664127 L438.533618,12.8257323 L435.979696,14.6104759 L433.6458,16.2579315 L433.425407,18.729115 L441.525397,15.7358711 L442.238929,23.0952386 C442.238929,23.259618 442.238929,23.4239975 442.26602,23.5898414 L439.630457,25.4016765 L439.630457,26.5274378 L442.293478,25.620605 L443.6389,25.620605 L446.357568,26.4714243 L446.357568,25.4833171 L443.474521,23.5612855 Z" id="Page-1-Copy-2" transform="translate(443.310141, 15.077438) rotate(-300.000000) translate(-443.310141, -15.077438) "></path>
        </g>
    </g>
</svg>