<?xml version="1.0" encoding="UTF-8"?>
<svg width="21px" height="21px" viewBox="0 0 21 21" version="1.1" xmlns="http://www.w3.org/2000/svg" xmlns:xlink="http://www.w3.org/1999/xlink">
    <!-- Generator: Sketch 48.2 (47327) - http://www.bohemiancoding.com/sketch -->
    <title>Page 1</title>
    <desc>Created with Sketch.</desc>
    <defs></defs>
    <g id="002-options-e" stroke="none" stroke-width="1" fill="none" fill-rule="evenodd" transform="translate(-912.000000, -320.000000)">
        <g id="Page-1" transform="translate(912.000000, 320.000000)" fill="#D0021B">
            <path d="M2.9952,2.9952 C-0.9984,6.9894 -0.9984,13.4652 2.9952,17.4588 C6.9894,21.4524 13.4652,21.4524 17.4588,17.4588 C21.4524,13.4652 21.4524,6.9894 17.4588,2.9952 C13.4652,-0.9984 6.9912,-0.9984 2.9952,2.9952 Z M16.0128,16.0128 C12.8178,19.2072 7.6362,19.2072 4.4412,16.0128 C1.2468,12.8178 1.2468,7.6362 4.4412,4.4412 C7.6362,1.2468 12.8178,1.2468 16.0128,4.4412 C19.2096,7.6386 19.2096,12.8178 16.0128,16.0128 Z" id="Fill-1"></path>
            <path d="M9.31704494,5.33925255 C9.52752633,5.11325657 9.80627195,5 10.1517303,5 C10.5695902,5 10.8483358,5.14532007 10.9900358,5.43440876 C11.1312187,5.72349744 11.2,6.13928868 11.2,6.6848854 C11.2,7.00603759 11.1839683,7.331327 11.149319,7.66282226 L10.8364413,11.2565204 C10.801792,11.6847233 10.7293906,12.0120814 10.6182026,12.240146 C10.504946,12.4687277 10.3213566,12.5835358 10.0648486,12.5835358 C9.80006611,12.5835358 9.62009677,12.4723478 9.51718326,12.250489 C9.41426976,12.0301817 9.34135115,11.6929978 9.29894458,11.2404887 L9.06467414,7.74970401 C9.02019896,7.06861314 9.00002998,6.57990328 9.00002998,6.28460876 C8.99796136,5.88071204 9.10294348,5.56576569 9.31704494,5.33925255 Z" id="Fill-2"></path>
            <path d="M10.7045338,15.7115793 C10.5044425,15.887716 10.2752299,15.977898 10.0075021,15.977898 C9.73789545,15.977898 9.50304648,15.8895948 9.30295516,15.7153368 C9.10286385,15.5410789 9,15.2973057 9,14.9854263 C9,14.7120621 9.09534868,14.4786222 9.28792483,14.286046 C9.48097068,14.0953487 9.71581964,14 9.99435052,14 C10.2733511,14 10.5082001,14.0953487 10.7064126,14.286046 C10.9027463,14.4786222 10.9999738,14.7120621 10.9999738,14.9854263 C11.0018526,15.2935481 10.9027463,15.5354425 10.7045338,15.7115793 Z" id="Fill-3"></path>
        </g>
    </g>
</svg>